<svg width="22" height="20" viewBox="0 0 22 20" fill="none" xmlns="http://www.w3.org/2000/svg">
<path fill-rule="evenodd" clip-rule="evenodd" d="M19 8.5C18.4477 8.5 18 8.94771 18 9.5V16.5C18 17.0523 17.5523 17.5 17 17.5H3C2.44772 17.5 2 17.0523 2 16.5V8.5C2 7.94772 2.44772 7.5 3 7.5H5C5.44815 7.52339 5.85701 7.24537 6 6.82L6.54 5.18C6.67757 4.77269 7.06008 4.49889 7.49 4.5H13C13.5523 4.5 14 4.05228 14 3.5C14 2.94772 13.5523 2.5 13 2.5H7.44C6.15129 2.50241 5.00809 3.3276 4.6 4.55L4.28 5.55H3C1.34315 5.55 0 6.89315 0 8.55V16.55C0 18.2069 1.34315 19.55 3 19.55H17C18.6569 19.55 20 18.2069 20 16.55V9.55C20.0137 9.27623 19.9144 9.00884 19.7254 8.81034C19.5363 8.61185 19.2741 8.49966 19 8.5ZM10 7.5C7.79086 7.5 6 9.29086 6 11.5C6 13.7091 7.79086 15.5 10 15.5C12.2091 15.5 14 13.7091 14 11.5C14 10.4391 13.5786 9.42172 12.8284 8.67157C12.0783 7.92143 11.0609 7.5 10 7.5ZM10 13.5C8.89543 13.5 8 12.6046 8 11.5C8 10.3954 8.89543 9.5 10 9.5C11.1046 9.5 12 10.3954 12 11.5C12 12.6046 11.1046 13.5 10 13.5ZM21 2.5H20V1.5C20 0.947715 19.5523 0.5 19 0.5C18.4477 0.5 18 0.947715 18 1.5V2.5H17C16.4477 2.5 16 2.94772 16 3.5C16 4.05228 16.4477 4.5 17 4.5H18V5.5C18 6.05228 18.4477 6.5 19 6.5C19.5523 6.5 20 6.05228 20 5.5V4.5H21C21.5523 4.5 22 4.05228 22 3.5C22 2.94772 21.5523 2.5 21 2.5Z" fill="white"/>
</svg>
